<mxfile host="app.diagrams.net" agent="Mozilla/5.0 (Windows NT 10.0; Win64; x64) AppleWebKit/537.36 (KHTML, like Gecko) Chrome/141.0.0.0 Safari/537.36" version="28.2.8">
  <diagram id="youvisa_arch_v2" name="Arquitetura_YouVisa">
    <mxGraphModel dx="1705" dy="1783" grid="1" gridSize="10" guides="1" tooltips="1" connect="1" arrows="1" fold="1" page="1" pageScale="1" pageWidth="1600" pageHeight="900" math="0" shadow="0">
      <root>
        <mxCell id="0" />
        <mxCell id="1" parent="0" />
        <mxCell id="whatsapp" value="WhatsApp (Cloud API)" style="shape=rectangle;rounded=1;whiteSpace=wrap;html=1;fillColor=#dae8fc;strokeColor=#6c8ebf;" parent="1" vertex="1">
          <mxGeometry x="60" y="200" width="200" height="50" as="geometry" />
        </mxCell>
        <mxCell id="telegram" value="Telegram Bot API" style="shape=rectangle;rounded=1;whiteSpace=wrap;html=1;fillColor=#dae8fc;strokeColor=#6c8ebf;" parent="1" vertex="1">
          <mxGeometry x="60" y="280" width="200" height="50" as="geometry" />
        </mxCell>
        <mxCell id="web" value="Web Chat (Widget)" style="shape=rectangle;rounded=1;whiteSpace=wrap;html=1;fillColor=#dae8fc;strokeColor=#6c8ebf;" parent="1" vertex="1">
          <mxGeometry x="60" y="360" width="200" height="50" as="geometry" />
        </mxCell>
        <mxCell id="gateway" value="Gateway Omnicanal / Orquestrador" style="shape=rectangle;rounded=1;whiteSpace=wrap;html=1;fillColor=#fff2cc;strokeColor=#d6b656;" parent="1" vertex="1">
          <mxGeometry x="330" y="280" width="260" height="60" as="geometry" />
        </mxCell>
        <mxCell id="nlp" value="NLP Engine (Intent/Entity)" style="shape=rectangle;rounded=1;whiteSpace=wrap;html=1;fillColor=#d5e8d4;strokeColor=#82b366;" parent="1" vertex="1">
          <mxGeometry x="640" y="280" width="230" height="60" as="geometry" />
        </mxCell>
        <mxCell id="policy" value="Policy / Context Manager" style="shape=rectangle;rounded=1;whiteSpace=wrap;html=1;fillColor=#d5e8d4;strokeColor=#82b366;" parent="1" vertex="1">
          <mxGeometry x="900" y="280" width="230" height="60" as="geometry" />
        </mxCell>
        <mxCell id="FThmFjDjbjzRfdR3xQou-3" style="edgeStyle=orthogonalEdgeStyle;rounded=0;orthogonalLoop=1;jettySize=auto;html=1;entryX=0.5;entryY=0;entryDx=0;entryDy=0;strokeWidth=2;" edge="1" parent="1" source="rules" target="handoff">
          <mxGeometry relative="1" as="geometry" />
        </mxCell>
        <mxCell id="rules" value="Regras &amp; Roteamento" style="shape=rectangle;rounded=1;whiteSpace=wrap;html=1;fillColor=#ffe6cc;strokeColor=#d79b00;" parent="1" vertex="1">
          <mxGeometry x="1160" y="280" width="230" height="60" as="geometry" />
        </mxCell>
        <mxCell id="vision" value="Visão Computacional (OCR/MRZ/Antifraude)" style="shape=rectangle;rounded=1;whiteSpace=wrap;html=1;fillColor=#f8cecc;strokeColor=#b85450;" parent="1" vertex="1">
          <mxGeometry x="1440" y="130" width="280" height="60" as="geometry" />
        </mxCell>
        <mxCell id="rpa" value="Orquestrador RPA" style="shape=rectangle;rounded=1;whiteSpace=wrap;html=1;fillColor=#f8cecc;strokeColor=#b85450;" parent="1" vertex="1">
          <mxGeometry x="1430" y="250" width="280" height="60" as="geometry" />
        </mxCell>
        <mxCell id="svc" value="Serviços Internos (Microserviços)" style="shape=rectangle;rounded=1;whiteSpace=wrap;html=1;fillColor=#e1d5e7;strokeColor=#9673a6;" parent="1" vertex="1">
          <mxGeometry x="1430" y="330" width="280" height="60" as="geometry" />
        </mxCell>
        <mxCell id="data" value="Data Lake + DW" style="shape=rectangle;rounded=1;whiteSpace=wrap;html=1;fillColor=#cce5ff;strokeColor=#6c8ebf;" parent="1" vertex="1">
          <mxGeometry x="1360" y="520" width="280" height="60" as="geometry" />
        </mxCell>
        <mxCell id="queue" value="Fila / Mensageria" style="shape=rectangle;rounded=1;whiteSpace=wrap;html=1;fillColor=#cce5ff;strokeColor=#6c8ebf;" parent="1" vertex="1">
          <mxGeometry x="1490" y="440" width="280" height="60" as="geometry" />
        </mxCell>
        <mxCell id="handoff" value="Handoff Humano (Agent Desk)" style="shape=rectangle;rounded=1;whiteSpace=wrap;html=1;fillColor=#e1d5e7;strokeColor=#9673a6;" parent="1" vertex="1">
          <mxGeometry x="1160" y="400" width="230" height="60" as="geometry" />
        </mxCell>
        <mxCell id="e1" style="endArrow=block;strokeWidth=2;rounded=0;" parent="1" source="whatsapp" target="gateway" edge="1">
          <mxGeometry relative="1" as="geometry" />
        </mxCell>
        <mxCell id="e2" style="endArrow=block;strokeWidth=2;rounded=0;" parent="1" source="telegram" target="gateway" edge="1">
          <mxGeometry relative="1" as="geometry" />
        </mxCell>
        <mxCell id="e3" style="endArrow=block;strokeWidth=2;rounded=0;" parent="1" source="web" target="gateway" edge="1">
          <mxGeometry relative="1" as="geometry" />
        </mxCell>
        <mxCell id="e4" style="endArrow=block;strokeWidth=2;rounded=0;" parent="1" source="gateway" target="nlp" edge="1">
          <mxGeometry relative="1" as="geometry" />
        </mxCell>
        <mxCell id="e5" style="endArrow=block;strokeWidth=2;rounded=0;" parent="1" source="nlp" target="policy" edge="1">
          <mxGeometry relative="1" as="geometry" />
        </mxCell>
        <mxCell id="e6" style="endArrow=block;strokeWidth=2;rounded=0;" parent="1" source="policy" target="rules" edge="1">
          <mxGeometry relative="1" as="geometry" />
        </mxCell>
        <mxCell id="e7" style="endArrow=block;strokeWidth=2;rounded=0;" parent="1" source="rules" target="vision" edge="1">
          <mxGeometry relative="1" as="geometry" />
        </mxCell>
        <mxCell id="e8" style="endArrow=block;strokeWidth=2;rounded=0;" parent="1" source="rules" target="rpa" edge="1">
          <mxGeometry relative="1" as="geometry" />
        </mxCell>
        <mxCell id="e9" style="endArrow=block;strokeWidth=2;rounded=0;" parent="1" source="rules" target="svc" edge="1">
          <mxGeometry relative="1" as="geometry" />
        </mxCell>
        <mxCell id="e10" style="endArrow=block;strokeWidth=2;rounded=0;exitX=0.129;exitY=1.033;exitDx=0;exitDy=0;exitPerimeter=0;entryX=0.375;entryY=0.033;entryDx=0;entryDy=0;entryPerimeter=0;" parent="1" source="svc" target="data" edge="1">
          <mxGeometry relative="1" as="geometry" />
        </mxCell>
        <mxCell id="e11" style="endArrow=block;strokeWidth=2;rounded=0;exitX=0.75;exitY=1;exitDx=0;exitDy=0;entryX=0.532;entryY=0.05;entryDx=0;entryDy=0;entryPerimeter=0;" parent="1" source="svc" target="queue" edge="1">
          <mxGeometry relative="1" as="geometry">
            <mxPoint x="1630" y="392" as="sourcePoint" />
          </mxGeometry>
        </mxCell>
      </root>
    </mxGraphModel>
  </diagram>
</mxfile>
